<svg xmlns="http://www.w3.org/2000/svg" width="960" height="347" viewBox="0 0 960 347">
<rect x="0" y="0" width="960" height="347" opacity="0" fill="#ffffff"/>
<style>text{font-family:Inter, SF Pro Text, Segoe UI, Helvetica, Arial, sans-serif;dominant-baseline:middle;}</style>
<rect x="36.0" y="4.0" rx="10" ry="10" width="888.0" height="42.0" fill="#fff5e6" stroke="#e5e7eb"/>
<text x="480.0" y="25.0" fill="#111827" font-size="14" text-anchor="middle">hornet::node</text>
<rect x="36.0" y="47.0" rx="10" ry="10" width="888.0" height="42.0" fill="#fff5e6" stroke="#e5e7eb"/>
<text x="480.0" y="68.0" fill="#111827" font-size="14" text-anchor="middle">hornet::node::sync</text>
<rect x="36.0" y="90.0" rx="10" ry="10" width="888.0" height="42.0" fill="#fff5e6" stroke="#e5e7eb"/>
<text x="480.0" y="111.0" fill="#111827" font-size="14" text-anchor="middle">hornet::node::dispatch</text>
<rect x="36.0" y="133.0" rx="10" ry="10" width="213.0" height="42.0" fill="#eef6ff" stroke="#e5e7eb"/>
<text x="142.5" y="154.0" fill="#111827" font-size="14" text-anchor="middle">hornet::protocol::script</text>
<rect x="261.0" y="133.0" rx="10" ry="10" width="213.0" height="42.0" fill="#eef6ff" stroke="#e5e7eb"/>
<text x="367.5" y="154.0" fill="#111827" font-size="14" text-anchor="middle">hornet::protocol::message</text>
<rect x="486.0" y="133.0" rx="10" ry="10" width="213.0" height="42.0" fill="#eef6ff" stroke="#e5e7eb"/>
<text x="592.5" y="154.0" fill="#111827" font-size="14" text-anchor="middle">hornet::data</text>
<rect x="711.0" y="133.0" rx="10" ry="10" width="213.0" height="42.0" fill="#fff5e6" stroke="#e5e7eb"/>
<text x="817.5" y="154.0" fill="#111827" font-size="14" text-anchor="middle">hornet::node::net</text>
<rect x="36.0" y="176.0" rx="10" ry="10" width="888.0" height="42.0" fill="#eef6ff" stroke="#e5e7eb"/>
<text x="480.0" y="197.0" fill="#111827" font-size="14" text-anchor="middle">hornet::protocol</text>
<rect x="36.0" y="219.0" rx="10" ry="10" width="288.0" height="42.0" fill="#eef6ff" stroke="#e5e7eb"/>
<text x="180.0" y="240.0" fill="#111827" font-size="14" text-anchor="middle">hornet::encoding</text>
<rect x="336.0" y="219.0" rx="10" ry="10" width="288.0" height="42.0" fill="#eef6ff" stroke="#e5e7eb"/>
<text x="480.0" y="240.0" fill="#111827" font-size="14" text-anchor="middle">hornet::consensus</text>
<rect x="636.0" y="219.0" rx="10" ry="10" width="288.0" height="42.0" fill="#fff5e6" stroke="#e5e7eb"/>
<text x="780.0" y="240.0" fill="#111827" font-size="14" text-anchor="middle">hornet::node::util</text>
<rect x="36.0" y="262.0" rx="10" ry="10" width="438.0" height="42.0" fill="#eef6ff" stroke="#e5e7eb"/>
<text x="255.0" y="283.0" fill="#111827" font-size="14" text-anchor="middle">hornet::crypto</text>
<rect x="486.0" y="262.0" rx="10" ry="10" width="438.0" height="42.0" fill="#eef6ff" stroke="#e5e7eb"/>
<text x="705.0" y="283.0" fill="#111827" font-size="14" text-anchor="middle">hornet::util</text>
<rect x="36" y="326.0" rx="4" ry="4" width="14" height="14" fill="#eef6ff" stroke="#e5e7eb"/>
<text x="58" y="333.0" fill="#ffffff" font-size="12" text-anchor="start">hornetlib</text>
<rect x="162" y="326.0" rx="4" ry="4" width="14" height="14" fill="#fff5e6" stroke="#e5e7eb"/>
<text x="184" y="333.0" fill="#ffffff" font-size="12" text-anchor="start">hornetnodelib</text>
</svg>